<?xml version="1.0" standalone="no"?>
<!DOCTYPE svg PUBLIC "-//W3C//DTD SVG 20010904//EN"
 "http://www.w3.org/TR/2001/REC-SVG-20010904/DTD/svg10.dtd">
<svg version="1.0" xmlns="http://www.w3.org/2000/svg"
 width="512.000000pt" height="512.000000pt" viewBox="0 0 512.000000 512.000000"
 preserveAspectRatio="xMidYMid meet">

<g transform="translate(0.000000,512.000000) scale(0.100000,-0.100000)"
fill="#000000" stroke="none">
<path d="M2503 4210 c-66 -10 -2053 -803 -2093 -836 -45 -38 -60 -82 -60 -174
0 -92 15 -136 60 -174 16 -13 172 -81 347 -150 175 -70 322 -131 326 -135 4
-4 -33 -226 -84 -492 -50 -266 -91 -511 -91 -544 -1 -134 67 -216 252 -307
358 -176 712 -270 1120 -298 495 -34 1026 76 1482 307 179 90 238 164 238 295
0 27 -38 252 -85 501 -47 248 -81 454 -77 458 6 6 83 38 313 129 l46 19 38
-227 c20 -125 39 -239 42 -253 4 -22 1 -27 -22 -33 -15 -4 -54 -33 -85 -65
-45 -44 -62 -70 -74 -111 -29 -97 -19 -170 35 -254 l30 -49 -81 -369 c-59
-264 -81 -381 -77 -409 6 -49 39 -98 85 -130 35 -23 41 -24 266 -27 260 -3
291 2 345 64 63 71 62 76 -28 484 -45 201 -81 375 -81 387 0 11 6 26 14 32 8
6 24 35 37 64 64 147 -7 322 -156 384 l-43 17 -41 251 c-23 137 -43 263 -44
278 -2 27 2 30 166 96 92 37 177 77 188 87 42 38 59 88 59 174 0 90 -19 142
-65 178 -30 24 -2015 819 -2062 827 -69 11 -90 11 -140 5z m1112 -559 l990
-396 0 -55 0 -55 -205 -83 -205 -83 -717 152 c-699 149 -717 152 -743 135 -52
-34 -54 -97 -3 -130 13 -8 283 -70 600 -138 318 -68 578 -125 578 -128 0 -3
-292 -121 -649 -264 -576 -230 -654 -259 -702 -258 -48 0 -175 49 -1049 399
l-995 398 0 55 0 55 990 397 c545 218 1004 398 1020 400 17 2 46 2 65 0 19 -3
480 -183 1025 -401z m-1757 -1216 c380 -152 612 -239 647 -244 30 -4 80 -4
110 0 35 5 239 81 557 208 276 110 503 199 504 198 8 -7 164 -865 164 -898 0
-63 -36 -93 -206 -176 -408 -198 -909 -296 -1349 -264 -342 25 -628 94 -928
224 -238 103 -288 141 -290 220 -1 57 176 978 187 973 6 -2 278 -110 604 -241z
m2570 -289 c119 -61 94 -227 -38 -250 -68 -12 -150 58 -150 128 0 95 106 164
188 122z m27 -485 c10 -42 43 -193 75 -336 41 -183 55 -264 48 -272 -15 -19
-407 -18 -414 0 -4 11 121 600 141 667 4 11 21 15 69 16 l65 0 16 -75z"/>
<path d="M1438 2292 c-21 -25 -26 -54 -52 -260 -26 -218 -27 -234 -12 -258 33
-50 98 -51 130 -2 14 22 66 393 66 471 0 71 -86 103 -132 49z"/>
</g>
</svg>
